<?xml version="1.0" standalone="no"?>
<!DOCTYPE svg PUBLIC "-//W3C//DTD SVG 20010904//EN"
 "http://www.w3.org/TR/2001/REC-SVG-20010904/DTD/svg10.dtd">
<svg version="1.0" xmlns="http://www.w3.org/2000/svg"
 width="256.000000pt" height="256.000000pt" viewBox="0 0 256.000000 256.000000"
 preserveAspectRatio="xMidYMid meet">
<metadata>
Created by potrace 1.11, written by Peter Selinger 2001-2013
</metadata>
<g transform="translate(0.000000,256.000000) scale(0.100000,-0.100000)"
fill="#000000" stroke="none">
<path d="M571 1944 c-55 -86 -129 -246 -156 -339 -33 -114 -47 -301 -23 -310
28 -11 205 14 290 41 45 15 118 43 160 63 l77 37 -5 -141 c-4 -98 -1 -173 10
-250 l15 -110 -100 -226 -99 -226 0 -92 0 -91 94 0 94 0 6 34 c4 20 23 51 46
75 38 39 97 77 107 68 9 -10 -18 -160 -38 -206 -40 -95 -126 -152 -255 -171
-38 -5 -224 -10 -413 -10 l-344 0 24 -26 c55 -59 55 -59 414 -59 247 0 344 3
385 14 201 50 292 172 316 421 4 41 12 78 18 82 14 10 118 10 132 0 6 -4 14
-45 17 -92 11 -155 62 -269 152 -338 104 -80 205 -94 616 -90 330 3 334 4 388
62 l24 26 -364 0 c-200 0 -395 5 -433 10 -128 19 -215 77 -254 169 -20 46 -48
198 -39 208 9 8 81 -43 114 -80 17 -20 34 -50 38 -67 l7 -31 91 3 92 3 3 85 3
86 -102 229 -102 228 14 106 c23 173 15 417 -17 524 -5 16 -27 17 -282 17
l-277 0 -206 206 -207 207 -31 -49z m202 -252 l149 -149 -79 -41 c-97 -51
-239 -99 -317 -108 l-57 -7 7 54 c12 98 43 199 90 300 26 54 50 99 53 99 3 0
73 -67 154 -148z m732 -269 c12 -104 7 -295 -10 -402 -18 -110 -70 -330 -91
-379 -13 -31 -16 -33 -56 -30 l-43 3 -3 153 -3 152 -44 0 -45 0 0 -155 0 -155
-49 0 -50 0 -15 53 c-44 152 -79 338 -91 492 -6 74 9 307 21 326 3 5 110 9
238 9 l234 0 7 -67z"/>
<path d="M1214 1306 c-48 -21 -74 -61 -74 -115 0 -75 48 -121 128 -121 61 0
122 61 122 122 0 37 -34 90 -71 110 -40 21 -63 22 -105 4z"/>
</g>
</svg>
